<svg height="512" viewBox="0 0 64 64" width="512" xmlns="http://www.w3.org/2000/svg"><g id="Filled_outline" data-name="Filled outline"><path d="m39 11h-14l-1-8h16z" fill="#d3843d"/><path d="m40 20v-3h-16v3s-4 3-4 6v31a4 4 0 0 0 4 4h16a4 4 0 0 0 4-4v-31c0-3-4-6-4-6z" fill="#50b4f8"/><path d="m44 29a3.769 3.769 0 0 0 -2-3c-1.223-.64-2.488-.979-3 0l-14 32a4.238 4.238 0 0 0 2 2c1.38.542 3 1 3 1l13.8-31.535a.585.585 0 0 0 .2-.465z" fill="#f4f4e6"/><path d="m44 29c0 1.105-1.777.64-3 0s-2.512-2.021-2-3 1.777-.64 3 0a3.769 3.769 0 0 1 2 3z" fill="#d8d7c0"/><path d="m22 11h20v6h-20z" fill="#f9bb4b"/><path d="m32 25c-.8-1.662-2.435-1.273-3.324-.463a2.283 2.283 0 0 0 .324 3.463l2.969 2 3.031-2a2.254 2.254 0 0 0 .324-3.463c-.889-.81-2.459-1.199-3.324.463z" fill="#da1c4b"/><path d="m27 6h2v2h-2z"/><path d="m31 6h2v2h-2z"/><path d="m35 6h2v2h-2z"/><path d="m24 62h16a5.006 5.006 0 0 0 5-5v-31c0-2.9-2.877-5.558-4-6.483v-1.517h1a1 1 0 0 0 1-1v-6a1 1 0 0 0 -1-1h-1.867l.859-6.876a1 1 0 0 0 -.992-1.124h-16a1 1 0 0 0 -.992 1.124l.859 6.876h-1.867a1 1 0 0 0 -1 1v6a1 1 0 0 0 1 1h1v1.517c-1.123.925-4 3.58-4 6.483v31a5.006 5.006 0 0 0 5 5zm3.356-2.935a2.889 2.889 0 0 1 -1.24-1.121l6.854-15.669a6.073 6.073 0 0 0 3.072 2.412v.007l-6.6 15.093c-.579-.18-1.368-.439-2.086-.722zm2.576-23.359c-.006-.108-.022-.436.63-.878a1.267 1.267 0 0 1 .59-.263.106.106 0 0 1 .051.01c.443.254.771 1.8.828 3.619-1.071-.794-2.063-1.77-2.099-2.488zm.459 4.864c-2.01 1.248-3.87 2.048-4.335 1.791a.762.762 0 0 1 -.056-.361 1.055 1.055 0 0 1 .41-.927 4.5 4.5 0 0 1 2.6-.575c.449.002.919.027 1.381.072zm3.62-.676 4.912-11.229a6.256 6.256 0 0 0 1.613 1.221 7.841 7.841 0 0 0 1.7.65l-5.383 12.306a4.47 4.47 0 0 1 -2.842-2.948zm8.989 17.106a3 3 0 0 1 -3 3h-8.471l5.247-11.993a16.472 16.472 0 0 0 2.424 4.593l1.6-1.2a14.454 14.454 0 0 1 -2.044-3.8 8.105 8.105 0 0 0 1.8 1.3l.894-1.79a10.869 10.869 0 0 1 -3.028-2.854l4.578-10.475zm-1.536-28.886c-1.064-.556-1.633-1.441-1.578-1.65.09-.169.7-.076 1.65.422a2.874 2.874 0 0 1 1.393 1.75 5 5 0 0 1 -1.465-.522zm-2.597-24.114-.75 6h-12.234l-.75-6zm-15.867 8h18v4h-18zm-2 14c0-2.042 2.6-4.446 3.6-5.2a1 1 0 0 0 .4-.8v-2h2v3.416c-1.217.735-4 2.729-4 5.584v5h2v-5c0-1.942 2.489-3.623 3.449-4.106a1 1 0 0 0 .551-.894v-4h10v2a1 1 0 0 0 .4.8c.9.682 3.106 2.708 3.525 4.6a4.552 4.552 0 0 0 -.46-.284c-2.751-1.441-3.88-.421-4.346.424 0 0-.088.183-.1.2l-4.279 9.78a3.954 3.954 0 0 0 -1.54-2.68 2.475 2.475 0 0 0 -2.76.332 2.944 2.944 0 0 0 -1.5 2.634 4.434 4.434 0 0 0 1.4 2.7 6.68 6.68 0 0 0 -4.15.992 3.058 3.058 0 0 0 -1.19 2.502 2.191 2.191 0 0 0 1.146 2.135 2.4 2.4 0 0 0 1.082.229 9.8 9.8 0 0 0 4.322-1.545l-6.466 14.781a1 1 0 0 0 .007.818 5.861 5.861 0 0 0 1.138 1.582h-1.229a3 3 0 0 1 -3-3z"/><path d="m23 34h2v2h-2z"/><path d="m39 56h-4v2h5a1 1 0 0 0 1-1v-3h-2z"/><path d="m28.441 28.83 2.97 2a1 1 0 0 0 1.11 0l3.091-2.043a3.4 3.4 0 0 0 1.375-2.567 3.1 3.1 0 0 0 -.987-2.42 3.359 3.359 0 0 0 -2.8-.915 2.668 2.668 0 0 0 -1.186.533 2.63 2.63 0 0 0 -1.139-.524 3.422 3.422 0 0 0 -2.875.906 3.161 3.161 0 0 0 -.97 2.51 3.329 3.329 0 0 0 1.411 2.52zm.909-3.554a1.6 1.6 0 0 1 1-.435.85.85 0 0 1 .145.013c.09.018.363.071.607.578a1 1 0 0 0 .884.568 1.015 1.015 0 0 0 .9-.538 1.014 1.014 0 0 1 .663-.61 1.456 1.456 0 0 1 1.1.424 1.113 1.113 0 0 1 .338.867 1.357 1.357 0 0 1 -.539 1.023l-2.472 1.634-2.394-1.611a1.3 1.3 0 0 1 -.553-1 1.163 1.163 0 0 1 .321-.913z"/></g></svg>